<svg xmlns="http://www.w3.org/2000/svg" viewBox="0 0 100 100" role="img" aria-label="NeuroCarta mascot">
  <!-- Upper left wing -->
  <path d="M48,44 C38,16 5,12 5,34 C5,54 26,62 48,60"
        fill="#FF7A00" stroke="#1D1D1B" stroke-width="2" stroke-linecap="round" stroke-linejoin="round"/>
  <!-- Upper right wing -->
  <path d="M52,44 C62,16 95,12 95,34 C95,54 74,62 52,60"
        fill="#FF7A00" stroke="#1D1D1B" stroke-width="2" stroke-linecap="round" stroke-linejoin="round"/>
  <!-- Lower left wing -->
  <path d="M48,61 C35,65 8,74 8,86 C8,95 32,92 48,72"
        fill="#FF7A00" stroke="#1D1D1B" stroke-width="2" stroke-linecap="round" stroke-linejoin="round"/>
  <!-- Lower right wing -->
  <path d="M52,61 C65,65 92,74 92,86 C92,95 68,92 52,72"
        fill="#FF7A00" stroke="#1D1D1B" stroke-width="2" stroke-linecap="round" stroke-linejoin="round"/>
  <!-- Gold spots upper wings -->
  <circle cx="30" cy="40" r="5.5" fill="#FFC107" opacity="0.55"/>
  <circle cx="70" cy="40" r="5.5" fill="#FFC107" opacity="0.55"/>
  <!-- Gold spots lower wings -->
  <circle cx="25" cy="76" r="4" fill="#FFC107" opacity="0.4"/>
  <circle cx="75" cy="76" r="4" fill="#FFC107" opacity="0.4"/>
  <!-- Body -->
  <ellipse cx="50" cy="58" rx="3.5" ry="15" fill="#1D1D1B"/>
  <!-- Head -->
  <circle cx="50" cy="42" r="3.5" fill="#1D1D1B"/>
  <!-- Left antenna -->
  <path d="M48,39 Q40,25 34,18" fill="none" stroke="#1D1D1B" stroke-width="1.5" stroke-linecap="round"/>
  <circle cx="34" cy="18" r="2.5" fill="#1D1D1B"/>
  <!-- Right antenna -->
  <path d="M52,39 Q60,25 66,18" fill="none" stroke="#1D1D1B" stroke-width="1.5" stroke-linecap="round"/>
  <circle cx="66" cy="18" r="2.5" fill="#1D1D1B"/>
</svg>
