<svg xmlns="http://www.w3.org/2000/svg" viewBox="0 0 100 100">
  <title>NeuroCarta.ai</title>
  <path d="M48,44 C38,16 5,12 5,34 C5,54 26,62 48,60" fill="#FF7A00" stroke="#1D1D1B" stroke-width="2.5" stroke-linecap="round" stroke-linejoin="round"/>
  <path d="M52,44 C62,16 95,12 95,34 C95,54 74,62 52,60" fill="#FF7A00" stroke="#1D1D1B" stroke-width="2.5" stroke-linecap="round" stroke-linejoin="round"/>
  <path d="M48,61 C35,65 8,74 8,86 C8,95 32,92 48,72" fill="#FF7A00" stroke="#1D1D1B" stroke-width="2.5" stroke-linecap="round" stroke-linejoin="round"/>
  <path d="M52,61 C65,65 92,74 92,86 C92,95 68,92 52,72" fill="#FF7A00" stroke="#1D1D1B" stroke-width="2.5" stroke-linecap="round" stroke-linejoin="round"/>
  <circle cx="30" cy="40" r="6" fill="#FFC107" opacity="0.6"/>
  <circle cx="70" cy="40" r="6" fill="#FFC107" opacity="0.6"/>
  <ellipse cx="50" cy="58" rx="4" ry="15" fill="#1D1D1B"/>
  <circle cx="50" cy="42" r="4" fill="#1D1D1B"/>
  <path d="M48,38 Q40,24 34,17" fill="none" stroke="#1D1D1B" stroke-width="2" stroke-linecap="round"/>
  <circle cx="34" cy="17" r="3" fill="#1D1D1B"/>
  <path d="M52,38 Q60,24 66,17" fill="none" stroke="#1D1D1B" stroke-width="2" stroke-linecap="round"/>
  <circle cx="66" cy="17" r="3" fill="#1D1D1B"/>
</svg>
